<svg id="Layer_1" enable-background="new 0 0 511.609 511.609" height="512" viewBox="0 0 511.609 511.609" width="512" xmlns="http://www.w3.org/2000/svg"><g><path d="m455.938 223.784c-6.221-6.083-12.653-12.372-14.104-17.798-1.56-5.833.92-14.774 3.318-23.42 3.525-12.709 7.171-25.852.955-36.596-6.311-10.907-19.64-14.326-32.529-17.632-8.588-2.203-17.469-4.48-21.605-8.617-4.138-4.137-6.415-13.018-8.618-21.607-3.307-12.89-6.725-26.218-17.632-32.529-10.743-6.216-23.886-2.57-36.596.955-8.646 2.399-17.587 4.878-23.421 3.319-5.426-1.45-11.715-7.883-17.798-14.103-8.972-9.176-19.14-19.576-32.035-19.576s-23.063 10.4-32.035 19.576c-6.083 6.22-12.372 12.653-17.798 14.103-5.834 1.559-14.774-.921-23.42-3.319-20.822-5.775-41.077-6.526-49.8 16.569-3.425 9.072 10.609 14.371 14.033 5.299 5.721-15.156 18.97-10.961 31.757-7.414 10.583 2.936 21.525 5.97 31.303 3.356 9.401-2.513 17.153-10.441 24.649-18.107 7.24-7.405 14.728-15.063 21.311-15.063s14.07 7.657 21.311 15.063c7.496 7.667 15.248 15.595 24.649 18.107 9.778 2.616 20.722-.421 31.303-3.355 9.727-2.698 19.783-5.488 25.075-2.426 5.454 3.156 8.077 13.382 10.613 23.272 2.705 10.544 5.501 21.447 12.541 28.487s17.943 9.836 28.486 12.541c9.89 2.537 20.116 5.16 23.272 10.614 3.062 5.292.271 15.349-2.426 25.075-2.936 10.581-5.97 21.522-3.356 31.302 2.513 9.401 10.441 17.154 18.108 24.65 7.405 7.24 15.063 14.728 15.063 21.31 0 6.583-7.657 14.07-15.063 21.311-7.667 7.497-15.596 15.249-18.108 24.65-2.613 9.78.421 20.721 3.356 31.302 2.697 9.726 5.487 19.783 2.425 25.075-3.155 5.454-13.382 8.077-23.271 10.614-10.544 2.704-21.447 5.5-28.487 12.541s-9.836 17.943-12.54 28.487c-2.536 9.89-5.159 20.116-10.613 23.271-5.294 3.063-15.351.272-25.075-2.425-10.582-2.935-21.523-5.968-31.303-3.356-9.401 2.513-17.153 10.441-24.649 18.107-7.24 7.405-14.728 15.063-21.311 15.063s-14.07-7.657-21.311-15.063c-7.496-7.667-15.248-15.595-24.649-18.107-9.778-2.615-20.722.421-31.303 3.355-9.728 2.698-19.786 5.487-25.075 2.426-5.454-3.156-8.077-13.382-10.613-23.272-2.705-10.544-5.501-21.447-12.541-28.487s-17.943-9.836-28.486-12.541c-9.89-2.537-20.116-5.16-23.272-10.614-3.062-5.292-.271-15.349 2.426-25.075 2.936-10.581 5.97-21.522 3.356-31.302-2.513-9.401-10.441-17.154-18.108-24.65-7.405-7.24-15.063-14.728-15.063-21.31 0-6.583 7.657-14.07 15.063-21.311 7.667-7.497 15.596-15.249 18.108-24.65 2.613-9.78-.421-20.721-3.356-31.302-2.697-9.726-5.487-19.783-2.425-25.075 3.155-5.454 13.382-8.077 23.271-10.614 14.912-3.824 29.031-8.317 35.6-23.553 3.839-8.905-9.936-14.842-13.775-5.938-4.529 10.511-15.542 12.394-25.551 14.961-12.89 3.306-26.219 6.725-32.529 17.632-6.216 10.744-2.57 23.886.955 36.596 2.398 8.646 4.878 17.586 3.318 23.42-1.449 5.426-7.882 11.715-14.103 17.798-9.176 8.972-19.576 19.141-19.576 32.036s10.4 23.063 19.575 32.035c6.221 6.083 12.653 12.372 14.104 17.798 1.56 5.833-.92 14.774-3.318 23.42-3.525 12.709-7.171 25.852-.955 36.596 6.311 10.907 19.64 14.326 32.529 17.632 8.588 2.203 17.469 4.48 21.605 8.617 4.138 4.137 6.415 13.018 8.618 21.607 3.307 12.89 6.725 26.218 17.632 32.529 10.744 6.217 23.887 2.57 36.596-.955 8.646-2.399 17.587-4.877 23.421-3.319 5.426 1.45 11.715 7.883 17.798 14.103 8.972 9.176 19.14 19.576 32.035 19.576s23.063-10.4 32.035-19.576c6.083-6.22 12.372-12.653 17.798-14.103 5.833-1.559 14.774.921 23.42 3.319 12.71 3.526 25.854 7.172 36.597.955 10.907-6.31 14.325-19.639 17.631-32.528 2.203-8.589 4.48-17.47 8.618-21.607 4.137-4.137 13.018-6.415 21.606-8.617 12.89-3.306 26.219-6.725 32.529-17.632 6.216-10.744 2.57-23.886-.955-36.596-2.398-8.646-4.878-17.586-3.318-23.42 1.449-5.426 7.882-11.715 14.103-17.798 9.176-8.972 19.576-19.141 19.576-32.036s-10.401-23.065-19.576-32.036z"/><path d="m255.874 403.322c81.333 0 147.503-66.17 147.503-147.503s-66.17-147.503-147.503-147.503-147.503 66.17-147.503 147.503 66.17 147.503 147.503 147.503zm0-280.007c73.063 0 132.503 59.441 132.503 132.503s-59.44 132.503-132.503 132.503-132.503-59.441-132.503-132.503 59.44-132.503 132.503-132.503z"/><path d="m190.809 320.883c7.748 7.747 20.684 7.747 28.432 0 6.857-6.857-3.749-17.462-10.607-10.606-4.663 4.667-11.882-2.553-7.217-7.217l101.697-101.698c4.663-4.667 11.882 2.553 7.217 7.217l-80.183 80.182c-6.857 6.857 3.749 17.463 10.607 10.606l80.183-80.182c18.247-18.249-10.155-46.704-28.432-28.43l-101.697 101.698c-7.838 7.838-7.838 20.591 0 28.43z"/><path d="m210.048 236.576c14.657 0 26.582-11.925 26.582-26.583 0-14.657-11.925-26.582-26.582-26.582-14.658 0-26.583 11.925-26.583 26.582 0 14.658 11.925 26.583 26.583 26.583zm0-38.165c6.387 0 11.582 5.196 11.582 11.582 0 6.387-5.195 11.583-11.582 11.583s-11.583-5.196-11.583-11.583c0-6.386 5.197-11.582 11.583-11.582z"/><path d="m301.699 275.062c-14.657 0-26.582 11.925-26.582 26.583 0 14.657 11.925 26.582 26.582 26.582 14.658 0 26.583-11.925 26.583-26.582 0-14.658-11.925-26.583-26.583-26.583zm0 38.165c-6.387 0-11.582-5.196-11.582-11.582 0-6.387 5.195-11.583 11.582-11.583s11.583 5.196 11.583 11.583c0 6.386-5.197 11.582-11.583 11.582z"/><path d="m420.581 96.018c1.919 0 3.839-.732 5.303-2.197l15.563-15.563c6.859-6.857-3.747-17.462-10.606-10.606l-15.563 15.563c-4.454 4.452-.994 12.803 5.303 12.803z"/><path d="m312.922 35.823c3.673.984 8.194-1.601 9.186-5.304l5.696-21.259c2.51-9.367-11.98-13.249-14.488-3.882l-5.696 21.259c-1.073 4.001 1.301 8.113 5.302 9.186z"/><path d="m186.096 31.468c2.465 9.204 17.007 5.516 14.488-3.882l-5.696-21.259c-2.508-9.367-16.999-5.486-14.488 3.882z"/><path d="m83.27 96.415c6.856 6.858 17.463-3.751 10.605-10.607l-15.563-15.563c-6.856-6.858-17.463 3.751-10.605 10.607z"/><path d="m5.432 198.377 21.26 5.696c9.039 2.422 13.148-12.006 3.883-14.489l-21.26-5.696c-9.367-2.51-13.249 11.979-3.883 14.489z"/><path d="m27.641 311.107-21.26 5.697c-9.243 2.477-5.077 16.884 3.883 14.489l21.26-5.697c9.367-2.51 5.485-16.992-3.883-14.489z"/><path d="m85.864 417.817-15.564 15.563c-6.859 6.857 3.748 17.462 10.606 10.606l15.563-15.563c6.859-6.856-3.749-17.465-10.605-10.606z"/><path d="m198.825 475.815c-4.003-1.072-8.114 1.302-9.186 5.304l-5.696 21.259c-2.442 9.11 11.952 13.353 14.488 3.882l5.696-21.26c1.073-4.001-1.301-8.113-5.302-9.185z"/><path d="m325.651 480.169c-2.51-9.366-16.999-5.486-14.488 3.882l5.696 21.259c2.465 9.204 17.007 5.516 14.488-3.882z"/><path d="m428.477 415.223c-6.856-6.858-17.463 3.751-10.605 10.607l15.563 15.563c6.856 6.858 17.463-3.751 10.605-10.607z"/><path d="m506.315 313.261-21.26-5.696c-9.368-2.508-13.249 11.979-3.883 14.489l21.26 5.696c9.039 2.422 13.148-12.006 3.883-14.489z"/><path d="m482.16 200.788c.643 0 1.296-.083 1.946-.257l21.26-5.697c9.366-2.51 5.485-16.996-3.883-14.489l-21.26 5.697c-8.391 2.248-6.441 14.746 1.937 14.746z"/></g></svg>